<?xml version="1.0" encoding="utf-8"?>
<!-- Generator: Adobe Illustrator 25.0.1, SVG Export Plug-In . SVG Version: 6.00 Build 0)  -->
<svg version="1.1" id="Capa_1" xmlns="http://www.w3.org/2000/svg" xmlns:xlink="http://www.w3.org/1999/xlink" x="0px" y="0px"
	 viewBox="0 0 72.3 23.5" style="enable-background:new 0 0 72.3 23.5;" xml:space="preserve">
<style type="text/css">
	.st0{fill:#F7F5F6;stroke:#A75374;stroke-width:0.25;stroke-miterlimit:10;}
	.st1{opacity:7.000000e-02;enable-background:new    ;}
	.st2{fill:#7C298D;}
	.st3{opacity:0.22;}
	.st4{fill:#FFFFFF;}
	.st5{fill:url(#SVGID_1_);}
	.st6{opacity:0.22;fill:#FFFFFF;enable-background:new    ;}
	.st7{fill:#A4486A;}
	.st8{fill:#A75374;}
</style>
<g>
	<circle class="st0" cx="9" cy="14.1" r="7.8"/>
	<g>
		<ellipse class="st1" cx="9" cy="19.9" rx="4" ry="0.6"/>
		<g>
			<g>
				<path class="st2" d="M16.1,10.2c-0.1,0.7-0.2,1.3-0.7,2.5s-1.1,2.4-1.8,3.6c-0.8,1.3-1.7,2.5-3,3.1c-0.9,0.5-2,0.6-3,0.4
					c-1.2-0.3-2.3-1-2.9-2.2c-0.4-0.8-0.5-1.7-0.2-2.6c0.1-0.3,0.3-0.7,0.5-1c0.9-1.2,2.6-1.6,3.8-2.5c0.8-0.6,1.5-1.5,2.1-2.2
					c1.3-1.5,1.7-1.8,2.3-2c0.1,0,1.7-0.5,2.5,0.4c0.2,0.2,0.3,0.5,0.4,0.8C16.2,9.2,16.1,9.7,16.1,10.2z"/>
				<path class="st1" d="M16.1,10.2c-0.1,0.7-0.2,1.3-0.7,2.5s-1.1,2.4-1.8,3.6c-0.8,1.3-1.7,2.5-3,3.1c-0.9,0.5-2,0.6-3,0.4
					c-1.2-0.3-2.3-1-2.9-2.2c-0.4-0.8-0.5-1.7-0.2-2.6c0.1,0,0.2,0.1,0.2,0.2c0.1,0.3,0.2,0.6,0.3,0.9c0.5,1,1.5,1.8,2.7,2
					c0.3,0.1,0.6,0.1,0.9,0.1c0.7,0,1.3-0.2,1.9-0.4c1.3-0.7,2.2-2,2.9-3c0.7-1.1,1.3-2.3,1.8-3.5c0.5-1.2,0.7-1.8,0.7-2.4
					c0-0.1,0.1-0.2,0.2-0.2C16.2,9.2,16.1,9.7,16.1,10.2z"/>
				<g class="st3">
					<path class="st4" d="M10.4,10.8c0.1-0.1,0.2-0.2,0.2-0.3c0,0,0,0,0.1-0.1c0,0,0,0,0.1-0.1c0,0,0,0,0.1-0.1c0,0,0,0,0.1-0.1
						c0,0,0,0,0.1-0.1c0,0,0,0,0.1-0.1l0,0l0,0c0,0,0,0,0.1-0.1c0,0,0,0,0.1-0.1c0,0,0,0,0.1-0.1c0,0,0,0,0.1-0.1l0,0l0,0l0.1-0.1
						l0.1-0.1l0.1-0.1c0,0,0.1,0,0.1-0.1c0,0,0,0,0.1,0l0,0h0.1c0.1,0,0.1,0,0.2,0c0.1,0,0.1,0,0.2,0.1c0,0,0.1,0,0.1,0.1l0,0
						c0,0,0,0,0,0.1c0,0,0,0.1,0.1,0.1v0.1c0,0.1,0,0.1,0,0.2c0,0.1,0,0.1,0,0.2l0,0l0,0v0.1v0.1v0.1v0.1c0,0,0,0,0,0.1
						c0,0,0,0,0,0.1v0.1v0.1c0,0,0,0.1-0.1,0.1c0,0,0,0.1-0.1,0.1c0,0,0,0.1-0.1,0.1c0,0,0,0.1-0.1,0.1c-0.1,0.2-0.2,0.3-0.3,0.4
						c-0.1,0.1-0.3,0.3-0.4,0.4l-0.1,0.1c0,0-0.1,0-0.1,0.1c0,0-0.1,0-0.1,0.1c0,0-0.1,0-0.1,0.1c0,0-0.1,0-0.1,0.1h-0.1
						c0,0,0,0-0.1,0c0,0,0,0-0.1,0h-0.1h-0.1h-0.1h-0.1l0,0l0,0c-0.1,0-0.1,0-0.2,0c-0.1,0-0.1,0-0.2,0c-0.1,0-0.1,0-0.1,0H9.9
						c0,0,0,0-0.1,0l0,0c0,0-0.1,0-0.1-0.1s-0.1-0.1-0.1-0.2c0-0.1,0-0.1,0-0.2v-0.1c0,0,0,0,0-0.1c0,0,0,0,0-0.1c0,0,0-0.1,0.1-0.1
						c0,0,0-0.1,0.1-0.1l0.1-0.1l0.1-0.1l0,0l0,0c0,0,0,0,0-0.1c0,0,0,0,0-0.1c0,0,0,0,0.1-0.1c0,0,0,0,0.1-0.1l0,0l0,0
						C10.2,10.9,10.2,10.9,10.4,10.8c-0.1,0-0.1,0,0-0.1c0,0,0,0,0.1-0.1c0,0,0,0,0.1-0.1c0,0,0,0,0.1-0.1c0,0,0,0,0.1-0.1
						C10.2,11,10.3,10.9,10.4,10.8z"/>
				</g>
			</g>
			<g>
				
					<linearGradient id="SVGID_1_" gradientUnits="userSpaceOnUse" x1="-64.9716" y1="329.6233" x2="-60.4397" y2="329.6233" gradientTransform="matrix(0.9578 0.2874 0.2874 -0.9578 -19.781 340.5171)">
					<stop  offset="0.3086" style="stop-color:#9CD538"/>
					<stop  offset="1" style="stop-color:#9CD538"/>
				</linearGradient>
				<path class="st5" d="M14.6,6.1c-0.2,0.1-0.4,0.1-0.9,0.3c-0.1,0-0.2,0.1-0.3,0.1c-0.5,0.3-1,0.7-1.2,1.2
					c0.5,0.3,1.1,0.4,1.6,0.2c-0.2,0.4-0.4,0.7-0.5,1.2c0,0.1,0,0.2,0,0.3c0.1,0.2,0.4,0.2,0.6,0.1c0.5-0.2,0.9-0.5,1.3-0.8
					c-0.2,0.7,0.2,1.5,0.8,1.8c0.3-0.4,0.5-0.9,0.6-1.6c0-0.7-0.3-0.8-0.2-1.7c0-0.3,0.1-1.1,0.4-1.7c0,0,0.2-0.3,0.3-0.6
					c0.1-0.3,0.2-0.5,0.1-0.6c-0.1-0.1-0.3-0.2-0.4-0.3c0,0-0.2-0.1-0.4-0.1c-0.3,0.1-0.3,0.6-0.7,1.2C15.5,5.4,15.1,5.9,14.6,6.1z"
					/>
				<path class="st1" d="M16,10.4c-0.6-0.3-1-1.1-0.8-1.8c-0.4,0.4-0.8,0.7-1.3,0.9c-0.2,0.1-0.5,0.1-0.6-0.1c0-0.1,0-0.2,0-0.3
					c0.1-0.4,0.3-0.8,0.5-1.2c-0.5,0.2-1.1,0.2-1.6-0.1c0.1-0.1,0.2-0.3,0.3-0.4c0.5,0.1,1,0,1.5-0.2c0.1,0,0.2-0.1,0.2-0.1
					c0.1,0,0.2,0,0.2,0.1s0,0.1,0,0.2c-0.1,0.4-0.3,0.9-0.2,1.1c0.2,0.1,0.6-0.4,0.9-0.6c0.1,0,0.1-0.1,0.2-0.1s0.2,0.1,0.2,0.2
					c0.1,0.3,0.2,1,0.4,1c0.2,0,0-1,0-1.5s0-1,0.1-1.5c0.1-0.4,0.3-0.7,0.5-1.1c0.2-0.3,0.3-0.6,0.3-1C16.9,4,17,4,17,4.1
					s0,0.3-0.1,0.6c-0.1,0.4-0.3,0.6-0.3,0.6c-0.4,0.6-0.4,1.4-0.4,1.7c0,0.9,0.3,1,0.2,1.7C16.5,9.5,16.2,10,16,10.4z"/>
				<path class="st6" d="M14.7,6.3c-0.1,0-0.2,0-0.3,0.1c0,0.1,0,0.1,0,0.2s0.1,0.1,0.2,0.1c0.2,0.1,0.5,0,0.7-0.2s0.3-0.4,0.4-0.7
					V5.7c0-0.1-0.2-0.1-0.2,0c-0.1,0.1-0.1,0.2-0.2,0.3C15.2,6.1,15,6.2,14.7,6.3z"/>
			</g>
		</g>
	</g>
	<g>
		<path class="st7" d="M29.8,18.1h2.6L29,8h-3.3l-3.4,10.2H25l0.7-2.1h3.5L29.8,18.1z M26.2,14.1l1.1-3.6h0.1l1.1,3.6H26.2z"/>
		<path class="st7" d="M37.5,16.3c-0.1,0-0.1,0-0.2,0c-0.1,0-0.2,0-0.3,0c-0.1,0-0.2,0-0.3-0.1s-0.2-0.1-0.2-0.2
			c0-0.1-0.1-0.2-0.1-0.4l0-3.6h1.4v-1.8h-1.3l0-2.4h-2.5l0,2.4h-1v1.8h1l0,3.8c0,0.5,0.1,0.9,0.3,1.3c0.2,0.3,0.5,0.6,0.9,0.8
			c0.4,0.2,0.9,0.2,1.5,0.2c0.3,0,0.5,0,0.8-0.1c0.2,0,0.4-0.1,0.5-0.1L37.5,16.3z"/>
		<path class="st7" d="M41.8,13.8v4.4h-2.4V8h2.4v3.9h0.1c0.2-0.5,0.5-0.8,0.8-1.1c0.4-0.3,0.9-0.4,1.4-0.4c0.5,0,1,0.1,1.4,0.4
			s0.7,0.6,0.9,1c0.2,0.4,0.3,0.9,0.3,1.5v4.9h-2.4v-4.4c0-0.4-0.1-0.8-0.3-1c-0.2-0.2-0.5-0.4-0.9-0.4c-0.3,0-0.5,0.1-0.7,0.2
			c-0.2,0.1-0.3,0.3-0.5,0.5C41.9,13.2,41.8,13.5,41.8,13.8z"/>
		<path class="st8" d="M53.6,10.5v1.3h-0.1c-0.1-0.2-0.2-0.5-0.4-0.7s-0.4-0.4-0.7-0.5c-0.3-0.1-0.6-0.2-1-0.2c-0.5,0-1,0.1-1.5,0.4
			c-0.5,0.3-0.8,0.7-1.1,1.3c-0.3,0.6-0.4,1.3-0.4,2.2c0,0.9,0.1,1.6,0.4,2.1c0.3,0.5,0.6,1,1.1,1.2c0.5,0.3,1,0.4,1.5,0.4
			c0.4,0,0.7-0.1,1-0.2c0.3-0.1,0.5-0.3,0.7-0.4c0.2-0.2,0.3-0.4,0.4-0.6h0.1v1.3c0,0.5-0.1,0.8-0.4,1c-0.3,0.2-0.6,0.3-1,0.3
			c-0.3,0-0.5,0-0.7-0.1c-0.2-0.1-0.3-0.2-0.5-0.3c-0.1-0.1-0.2-0.3-0.2-0.4l-2.3,0.1c0.1,0.4,0.2,0.8,0.5,1.2
			c0.3,0.4,0.7,0.6,1.2,0.8c0.5,0.2,1.1,0.3,1.9,0.3c0.8,0,1.4-0.1,2-0.3c0.6-0.2,1-0.6,1.4-1c0.3-0.4,0.5-1,0.5-1.6v-7.7H53.6z
			 M53.5,15.4c-0.1,0.3-0.3,0.5-0.5,0.7c-0.2,0.2-0.5,0.2-0.8,0.2c-0.3,0-0.6-0.1-0.8-0.2c-0.2-0.2-0.4-0.4-0.5-0.7
			c-0.1-0.3-0.2-0.6-0.2-1c0-0.4,0.1-0.8,0.2-1.1c0.1-0.3,0.3-0.5,0.5-0.7c0.2-0.2,0.5-0.2,0.8-0.2c0.3,0,0.5,0.1,0.8,0.2
			c0.2,0.2,0.4,0.4,0.5,0.7c0.1,0.3,0.2,0.7,0.2,1.1C53.6,14.7,53.6,15.1,53.5,15.4z"/>
		<path class="st8" d="M57.9,18.1v-7.6h2.4v1.4h0.1c0.1-0.5,0.4-0.9,0.7-1.1c0.3-0.2,0.7-0.4,1.1-0.4c0.1,0,0.2,0,0.3,0
			c0.1,0,0.2,0,0.3,0.1v2.1c-0.1,0-0.3-0.1-0.5-0.1c-0.2,0-0.4,0-0.5,0c-0.3,0-0.5,0.1-0.8,0.2c-0.2,0.1-0.4,0.3-0.5,0.5
			c-0.1,0.2-0.2,0.5-0.2,0.8v4.1H57.9z"/>
		<path class="st8" d="M70.6,12.3c-0.3-0.6-0.8-1.1-1.3-1.4c-0.6-0.3-1.3-0.5-2.1-0.5c-0.8,0-1.5,0.2-2.1,0.5
			c-0.6,0.3-1,0.8-1.3,1.4c-0.3,0.6-0.5,1.3-0.5,2.1c0,0.8,0.2,1.5,0.5,2.1c0.3,0.6,0.8,1.1,1.3,1.4c0.6,0.3,1.3,0.5,2.1,0.5
			c0.8,0,1.5-0.2,2.1-0.5c0.6-0.3,1-0.8,1.3-1.4c0.3-0.6,0.5-1.3,0.5-2.1C71.1,13.6,70.9,12.9,70.6,12.3z M68.4,15.4
			c-0.1,0.3-0.3,0.6-0.5,0.7c-0.2,0.2-0.4,0.3-0.7,0.3c-0.3,0-0.6-0.1-0.8-0.3c-0.2-0.2-0.4-0.4-0.5-0.7c-0.1-0.3-0.2-0.7-0.2-1.1
			c0-0.4,0.1-0.8,0.2-1.1c0.1-0.3,0.3-0.6,0.5-0.7c0.2-0.2,0.5-0.3,0.8-0.3c0.3,0,0.5,0.1,0.7,0.3c0.2,0.2,0.4,0.4,0.5,0.7
			s0.2,0.7,0.2,1.1C68.6,14.8,68.5,15.1,68.4,15.4z"/>
	</g>
</g>
</svg>
