<?xml version="1.0" encoding="utf-8"?>
<!-- Generator: Adobe Illustrator 25.4.1, SVG Export Plug-In . SVG Version: 6.00 Build 0)  -->
<svg version="1.1" id="Capa_1" xmlns="http://www.w3.org/2000/svg" xmlns:xlink="http://www.w3.org/1999/xlink" x="0px" y="0px"
	 viewBox="0 0 72.3 23.5" style="enable-background:new 0 0 72.3 23.5;" xml:space="preserve">
<style type="text/css">
	.st0{fill:#B615A0;}
	.st1{fill:url(#SVGID_1_);}
	.st2{opacity:7.000000e-02;enable-background:new    ;}
	.st3{opacity:0.22;}
	.st4{fill:#FFFFFF;}
	.st5{fill:url(#SVGID_00000026860762733386534610000005469488986635941566_);}
	.st6{opacity:0.22;fill:#FFFFFF;enable-background:new    ;}
</style>
<g>
	<path class="st0" d="M29.8,18.1h2.6L29,8h-3.3l-3.4,10.2H25l0.7-2.1h3.5L29.8,18.1z M26.2,14.1l1.1-3.6h0.1l1.1,3.6H26.2z"/>
	<path class="st0" d="M37.5,16.3c-0.1,0-0.1,0-0.2,0c-0.1,0-0.2,0-0.3,0s-0.2,0-0.3-0.1s-0.2-0.1-0.2-0.2c0-0.1-0.1-0.2-0.1-0.4V12
		h1.4v-1.8h-1.3V7.8H34v2.4h-1V12h1v3.8c0,0.5,0.1,0.9,0.3,1.3c0.2,0.3,0.5,0.6,0.9,0.8c0.4,0.2,0.9,0.2,1.5,0.2
		c0.3,0,0.5,0,0.8-0.1c0.2,0,0.4-0.1,0.5-0.1L37.5,16.3z"/>
	<path class="st0" d="M41.8,13.8v4.4h-2.4V8h2.4v3.9h0.1c0.2-0.5,0.5-0.8,0.8-1.1c0.4-0.3,0.9-0.4,1.4-0.4s1,0.1,1.4,0.4
		s0.7,0.6,0.9,1s0.3,0.9,0.3,1.5v4.9h-2.4v-4.4c0-0.4-0.1-0.8-0.3-1s-0.5-0.4-0.9-0.4c-0.3,0-0.5,0.1-0.7,0.2
		c-0.2,0.1-0.3,0.3-0.5,0.5C41.9,13.2,41.8,13.5,41.8,13.8z"/>
	<path class="st0" d="M53.6,10.5v1.3h-0.1c-0.1-0.2-0.2-0.5-0.4-0.7s-0.4-0.4-0.7-0.5s-0.6-0.2-1-0.2c-0.5,0-1,0.1-1.5,0.4
		c-0.5,0.3-0.8,0.7-1.1,1.3s-0.4,1.3-0.4,2.2s0.1,1.6,0.4,2.1c0.3,0.5,0.6,1,1.1,1.2c0.5,0.3,1,0.4,1.5,0.4c0.4,0,0.7-0.1,1-0.2
		s0.5-0.3,0.7-0.4c0.2-0.2,0.3-0.4,0.4-0.6h0.1v1.3c0,0.5-0.1,0.8-0.4,1c-0.3,0.2-0.6,0.3-1,0.3c-0.3,0-0.5,0-0.7-0.1
		S51.2,19.1,51,19c-0.1-0.1-0.2-0.3-0.2-0.4l-2.3,0.1c0.1,0.4,0.2,0.8,0.5,1.2c0.3,0.4,0.7,0.6,1.2,0.8c0.5,0.2,1.1,0.3,1.9,0.3
		c0.8,0,1.4-0.1,2-0.3c0.6-0.2,1-0.6,1.4-1c0.3-0.4,0.5-1,0.5-1.6v-7.7h-2.4V10.5z M53.5,15.4c-0.1,0.3-0.3,0.5-0.5,0.7
		s-0.5,0.2-0.8,0.2s-0.6-0.1-0.8-0.2c-0.2-0.2-0.4-0.4-0.5-0.7s-0.2-0.6-0.2-1s0.1-0.8,0.2-1.1c0.1-0.3,0.3-0.5,0.5-0.7
		s0.5-0.2,0.8-0.2s0.5,0.1,0.8,0.2c0.2,0.2,0.4,0.4,0.5,0.7s0.2,0.7,0.2,1.1C53.6,14.7,53.6,15.1,53.5,15.4z"/>
	<path class="st0" d="M57.9,18.1v-7.6h2.4v1.4h0.1c0.1-0.5,0.4-0.9,0.7-1.1c0.3-0.2,0.7-0.4,1.1-0.4c0.1,0,0.2,0,0.3,0
		s0.2,0,0.3,0.1v2.1c-0.1,0-0.3-0.1-0.5-0.1s-0.4,0-0.5,0c-0.3,0-0.5,0.1-0.8,0.2c-0.2,0.1-0.4,0.3-0.5,0.5s-0.2,0.5-0.2,0.8v4.1
		H57.9z"/>
	<path class="st0" d="M70.6,12.3c-0.3-0.6-0.8-1.1-1.3-1.4c-0.6-0.3-1.3-0.5-2.1-0.5c-0.8,0-1.5,0.2-2.1,0.5s-1,0.8-1.3,1.4
		c-0.3,0.6-0.5,1.3-0.5,2.1c0,0.8,0.2,1.5,0.5,2.1s0.8,1.1,1.3,1.4c0.6,0.3,1.3,0.5,2.1,0.5c0.8,0,1.5-0.2,2.1-0.5s1-0.8,1.3-1.4
		s0.5-1.3,0.5-2.1C71.1,13.6,70.9,12.9,70.6,12.3z M68.4,15.4c-0.1,0.3-0.3,0.6-0.5,0.7c-0.2,0.2-0.4,0.3-0.7,0.3
		c-0.3,0-0.6-0.1-0.8-0.3c-0.2-0.2-0.4-0.4-0.5-0.7s-0.2-0.7-0.2-1.1c0-0.4,0.1-0.8,0.2-1.1s0.3-0.6,0.5-0.7
		c0.2-0.2,0.5-0.3,0.8-0.3s0.5,0.1,0.7,0.3s0.4,0.4,0.5,0.7s0.2,0.7,0.2,1.1C68.6,14.8,68.5,15.1,68.4,15.4z"/>
</g>
<g>
	
		<linearGradient id="SVGID_1_" gradientUnits="userSpaceOnUse" x1="13.6357" y1="6.3249" x2="6.4186" y2="18.8253" gradientTransform="matrix(1 0 0 -1 0 26)">
		<stop  offset="0" style="stop-color:#DFE9F3"/>
		<stop  offset="0.97" style="stop-color:#FFFFFF"/>
	</linearGradient>
	<circle class="st1" cx="9.8" cy="12.9" r="7.8"/>
	<ellipse class="st2" cx="9.8" cy="18.7" rx="4" ry="0.6"/>
	<path class="st0" d="M16.8,9.1c-0.1,0.7-0.2,1.3-0.7,2.5c-0.5,1.2-1.1,2.4-1.8,3.6c-0.8,1.3-1.7,2.5-3,3.1c-0.9,0.5-2,0.6-3,0.4
		c-1.2-0.3-2.3-1-2.9-2.2c-0.4-0.8-0.5-1.7-0.2-2.6c0.1-0.4,0.3-0.7,0.5-1c0.9-1.2,2.6-1.6,3.8-2.5c0.8-0.6,1.5-1.5,2.1-2.2
		c1.3-1.5,1.7-1.8,2.3-2c0.1,0,1.7-0.5,2.5,0.4c0.2,0.2,0.3,0.5,0.4,0.8C16.9,8.1,16.8,8.6,16.8,9.1z"/>
	<path class="st2" d="M16.8,9.1c-0.1,0.7-0.2,1.3-0.7,2.5c-0.5,1.2-1.1,2.4-1.8,3.6c-0.8,1.3-1.7,2.5-3,3.1c-0.9,0.5-2,0.6-3,0.4
		c-1.2-0.3-2.3-1-2.9-2.2c-0.4-0.8-0.5-1.7-0.2-2.6c0.1,0,0.2,0.1,0.2,0.2c0.1,0.3,0.2,0.6,0.3,0.9c0.5,1,1.5,1.8,2.7,2
		C8.8,17,9.1,17,9.4,17c0.7,0,1.3-0.2,1.9-0.4c1.3-0.7,2.2-2,2.9-3c0.7-1.1,1.3-2.3,1.8-3.5s0.7-1.8,0.7-2.4c0-0.1,0.1-0.2,0.2-0.2
		C16.9,8.1,16.8,8.6,16.8,9.1z"/>
	<g class="st3">
		<path class="st4" d="M11.1,9.7c0.1-0.1,0.2-0.2,0.2-0.3l0.1-0.1l0.1-0.1l0.1-0.1L11.7,9l0.1-0.1l0.1-0.1l0,0L12,8.7l0.1-0.1
			l0.1-0.1l0.1-0.1l0,0l0.1-0.1l0.1-0.1l0.1-0.1c0.1,0,0.1,0,0.1-0.1c0,0,0,0,0,0h0.4c0.1,0,0.1,0,0.2,0.1c0.1,0,0.1,0,0.1,0.1
			c0,0,0,0,0,0l0,0v0.1c0,0.1,0,0.1,0.1,0.1c0,0,0,0,0,0v0.5l0,0v0.8c0,0.1,0,0.1-0.1,0.1c0,0,0,0,0,0c0,0.1,0,0.1-0.1,0.1
			c0,0,0,0,0,0c0,0.1,0,0.1-0.1,0.1c0,0,0,0,0,0c0,0.1,0,0.1-0.1,0.1c0,0,0,0,0,0c-0.1,0.1-0.2,0.3-0.3,0.4l-0.4,0.4L12.4,11
			c-0.1,0-0.1,0-0.1,0.1c0,0,0,0,0,0c-0.1,0-0.1,0-0.1,0.1c0,0,0,0,0,0c-0.1,0-0.1,0-0.1,0.1c0,0,0,0,0,0c-0.1,0-0.1,0-0.1,0.1
			c0,0,0,0,0,0h-1.4c-0.1,0-0.1,0-0.1-0.1c0,0,0,0,0,0c0-0.1-0.1-0.1-0.1-0.2v-0.5c0-0.1,0-0.1,0.1-0.1c0,0,0,0,0,0
			c0-0.1,0-0.1,0.1-0.1c0,0,0,0,0,0l0.1-0.1l0.1-0.1l0,0V10l0.1-0.1l0.1-0.1l0,0C10.9,9.8,10.9,9.8,11.1,9.7c-0.1,0-0.1,0,0-0.1
			l0.1-0.1l0.1-0.1l0.1-0.1l0.1-0.1C10.9,9.9,11,9.8,11.1,9.7z"/>
	</g>
	
		<linearGradient id="SVGID_00000024715900414212703690000007743716035853108154_" gradientUnits="userSpaceOnUse" x1="32.1965" y1="626.42" x2="36.7106" y2="626.42" gradientTransform="matrix(0.96 0.29 -0.29 0.96 164.27 -605.67)">
		<stop  offset="0.31" style="stop-color:#9CD538"/>
		<stop  offset="1" style="stop-color:#9CD538"/>
	</linearGradient>
	<path style="fill:url(#SVGID_00000024715900414212703690000007743716035853108154_);" d="M15.3,5c-0.2,0.1-0.4,0.1-0.9,0.3
		c-0.1,0-0.2,0.1-0.3,0.1c-0.5,0.3-1,0.7-1.2,1.2C13.4,6.9,14,7,14.5,6.8C14.3,7.2,14.1,7.5,14,8v0.3c0.1,0.2,0.4,0.2,0.6,0.1
		c0.5-0.2,0.9-0.5,1.3-0.8c-0.2,0.7,0.2,1.5,0.8,1.8C17,9,17.2,8.5,17.3,7.8c0-0.7-0.3-0.8-0.2-1.7c0-0.3,0.1-1.1,0.4-1.7
		c0.1-0.2,0.2-0.4,0.3-0.6c0.1-0.3,0.2-0.5,0.1-0.6c-0.1-0.1-0.3-0.2-0.4-0.3c-0.1-0.1-0.3-0.1-0.4-0.1c-0.3,0.1-0.3,0.6-0.7,1.2
		C16.2,4.3,15.8,4.8,15.3,5z"/>
	<path class="st2" d="M16.7,9.3c-0.6-0.3-1-1.1-0.8-1.8c-0.4,0.4-0.8,0.7-1.3,0.9c-0.2,0.1-0.5,0.1-0.6-0.1V8
		c0.1-0.4,0.3-0.8,0.5-1.2C14,7,13.4,7,12.9,6.7c0.1-0.1,0.2-0.3,0.3-0.4c0.5,0.1,1,0,1.5-0.2c0.1,0,0.2-0.1,0.2-0.1
		c0.1,0,0.2,0,0.2,0.1v0.2c-0.1,0.4-0.3,0.9-0.2,1.1c0.2,0.1,0.6-0.4,0.9-0.6c0.1,0,0.1-0.1,0.2-0.1c0.1,0,0.2,0.1,0.2,0.2
		c0.1,0.3,0.2,1,0.4,1s0-1,0-1.5s0-1,0.1-1.5c0.1-0.4,0.3-0.7,0.5-1.1c0.2-0.3,0.3-0.6,0.3-1c0.1,0.1,0.2,0.1,0.2,0.2
		c0,0.2,0,0.4-0.1,0.6c-0.1,0.4-0.3,0.6-0.3,0.6c-0.4,0.6-0.4,1.4-0.4,1.7c0,0.9,0.3,1,0.2,1.7C17.2,8.4,16.9,8.9,16.7,9.3z"/>
	<path class="st6" d="M15.4,5.2c-0.1,0-0.2,0-0.3,0.1v0.2c0,0.1,0.1,0.1,0.2,0.1c0.2,0.1,0.5,0,0.7-0.2c0.2-0.2,0.3-0.4,0.4-0.7V4.6
		c0-0.1-0.2-0.1-0.2,0c-0.1,0.1-0.1,0.2-0.2,0.3C15.9,5,15.7,5.1,15.4,5.2z"/>
</g>
</svg>
