<svg xmlns="http://www.w3.org/2000/svg" xmlns:xlink="http://www.w3.org/1999/xlink" id="Capa_1" x="0" y="0" version="1.1" viewBox="0 0 356.3 399.8" xml:space="preserve" style="enable-background:new 0 0 356.3 399.8"><style type="text/css">.st0{fill:url(#SVGID_1_)}.st1{opacity:7.000000e-02;enable-background:new}.st2{fill:#b615a0}.st3{opacity:.22}.st4,.st6{fill:#fff}.st6{opacity:.22;enable-background:new}</style><g><linearGradient id="SVGID_1_" x1="259.875" x2="98.955" y1="25.405" y2="304.125" gradientTransform="matrix(1 0 0 -1 0 402)" gradientUnits="userSpaceOnUse"><stop offset="0" style="stop-color:#dfe9f3"/><stop offset=".97" style="stop-color:#fff"/></linearGradient><circle cx="173.2" cy="226.5" r="173.2" class="st0"/><ellipse cx="173.2" cy="355.4" class="st1" rx="88.8" ry="13.3"/><path d="M330.9,139.9c-2.2,15.6-4.4,28.9-15.6,55.5c-11.5,27.5-24.9,54.3-40,80c-17.8,28.9-37.8,55.5-66.6,68.9 c-20,11.1-44.4,13.3-66.6,8.9c-26.6-6.7-51.1-22.2-64.4-48.9c-8.9-17.8-11.1-37.8-4.4-57.8c2.8-7.8,6.5-15.3,11.1-22.2 c20-26.6,57.8-35.6,84.4-55.5c17.8-13.3,33.3-33.3,46.6-48.9c28.9-33.3,37.8-40,51.1-44.4c2.2,0,37.8-11.1,55.5,8.9 c4.4,4.4,6.7,11.1,8.9,17.8C333.1,117.7,330.9,128.9,330.9,139.9z" class="st2"/><path d="M330.9,139.9c-2.2,15.6-4.4,28.9-15.6,55.5c-11.5,27.5-24.9,54.3-40,80c-17.8,28.9-37.8,55.5-66.6,68.9 c-20,11.1-44.4,13.3-66.6,8.9c-26.6-6.7-51.1-22.2-64.4-48.9c-8.9-17.8-11.1-37.8-4.4-57.8c2.4,0.2,4.3,2.1,4.4,4.4 c2.2,6.7,4.4,13.3,6.7,20c11.1,22.3,33.4,40,60,44.5c6.7,2.2,13.3,2.2,20,2.2c15.6,0,28.9-4.4,42.2-8.9 c28.9-15.6,48.9-44.4,64.4-66.6c15.5-24.4,28.9-51.1,40-77.7s15.5-40,15.5-53.3c0.2-2.4,2.1-4.3,4.4-4.4 C333.1,117.7,330.9,128.9,330.9,139.9z" class="st1"/><g class="st3"><path d="M204.3,153.3c2.2-2.2,4.4-4.4,4.4-6.7l2.2-2.2l2.2-2.2l2.2-2.2l2.2-2.2l2.2-2.2l2.2-2.2l0,0l2.2-2.2l2.2-2.2 l2.2-2.2l2.2-2.2l0,0l2.2-2.2l2.2-2.2l2.2-2.2c1.2,0,2.2-0.9,2.3-2.1c0,0,0-0.1,0-0.1h8.9c2.2,0,2.2,0,4.4,2.2 c1.2,0,2.2,0.9,2.2,2.1c0,0,0,0.1,0,0.1l0,0v2.2c0,1.2,0.9,2.2,2.1,2.2c0,0,0.1,0,0.1,0v11.1l0,0v17.9c0,1.2-0.9,2.2-2.1,2.2 c0,0-0.1,0-0.1,0c0,1.2-0.9,2.2-2.1,2.2c0,0-0.1,0-0.1,0c0,1.2-0.9,2.2-2.1,2.2c0,0-0.1,0-0.1,0c0,1.2-0.9,2.2-2.1,2.2 c0,0-0.1,0-0.1,0c-1.7,3.3-3.9,6.4-6.7,8.9l-8.9,8.9l-2.2,2.2c-1.2,0-2.2,0.9-2.2,2.1c0,0,0,0.1,0,0.1c-1.2,0-2.2,0.9-2.2,2.1 c0,0,0,0.1,0,0.1c-1.2,0-2.2,0.9-2.2,2.1c0,0,0,0.1,0,0.1c-1.2,0-2.2,0.9-2.2,2.1c0,0,0,0.1,0,0.1h-31.4c-1.2,0-2.2-0.9-2.2-2.1 c0,0,0-0.1,0-0.1c0-2.2-2.2-2.2-2.2-4.4v-11.2c0-1.2,0.9-2.2,2.1-2.2c0,0,0.1,0,0.1,0c0-1.2,0.9-2.2,2.1-2.2c0,0,0.1,0,0.1,0 l2.3-2.2l2.2-2.2l0,0v-4.5l2.2-2.2l2.2-2.2l0,0C199.9,155.5,199.9,155.5,204.3,153.3c-2.2,0-2.2,0,0-2.2l2.2-2.2l2.2-2.2l2.2-2.2 l2.2-2.2C199.9,157.7,202.1,155.5,204.3,153.3z" class="st4"/></g><linearGradient id="SVGID_00000032641510287182403440000002162464892659177399_" x1="230.055" x2="330.705" y1="648.619" y2="648.619" gradientTransform="matrix(0.96 0.29 -0.29 0.96 224.47 -639.33)" gradientUnits="userSpaceOnUse"><stop offset=".31" style="stop-color:#9cd538"/><stop offset="1" style="stop-color:#9cd538"/></linearGradient><path style="fill:url(#SVGID_00000032641510287182403440000002162464892659177399_)" d="M297.6,48.9c-4.4,2.2-8.9,2.2-20,6.7 c-2.2,0-4.4,2.2-6.7,2.2c-11.1,6.7-22.2,15.5-26.6,26.6c11.1,6.6,24.4,8.8,35.6,4.4c-4.4,8.9-8.9,15.6-11.1,26.6v6.7 c2.2,4.4,8.9,4.4,13.3,2.2c11.1-4.4,20-11.1,28.9-17.8c-4.4,15.6,4.4,33.3,17.8,40c6.7-8.9,11.1-20,13.3-35.5 c0-15.6-6.7-17.8-4.4-37.8c0-6.7,2.2-24.4,8.9-37.8c2.7-4.2,5-8.7,6.7-13.4c2.2-6.7,4.4-11.1,2.2-13.3s-6.7-4.4-8.9-6.7 c-2.8-1.3-5.8-2.1-8.9-2.2c-6.7,2.2-6.7,13.3-15.5,26.6C317.6,33.3,308.7,44.4,297.6,48.9z"/><path d="M328.7,144.4c-13.3-6.7-22.2-24.4-17.8-40c-8.9,8.9-17.8,15.6-28.9,20c-4.4,2.2-11.1,2.2-13.3-2.2v-6.7 c2.2-8.9,6.7-17.8,11.1-26.6c-11.1,4.4-24.4,4.4-35.5-2.2c2.2-2.2,4.4-6.7,6.7-8.9c11.1,2.2,22.2,0,33.3-4.4c2.2,0,4.4-2.2,4.4-2.2 c2.2,0,4.4,0,4.4,2.2v4.4c-2.2,8.9-6.7,20-4.4,24.4c4.4,2.2,13.3-8.9,20-13.3c2.2,0,2.2-2.2,4.4-2.2c2.4,0.2,4.3,2.1,4.4,4.4 c2.2,6.7,4.4,22.2,8.9,22.2s0-22.2,0-33.3s0-22.2,2.2-33.3c2.2-8.9,6.7-15.5,11.1-24.4c4.5-6.5,6.8-14.3,6.7-22.2 c2.2,2.2,4.4,2.2,4.4,4.4c0,4.5-0.7,9-2.2,13.3c-2.2,8.9-6.7,13.3-6.7,13.3c-8.9,13.3-8.9,31.1-8.9,37.8c0,20,6.7,22.2,4.4,37.8 C339.8,124.4,333.1,135.5,328.7,144.4z" class="st1"/><path d="M299.8,53.3c-2.2,0-4.4,0-6.7,2.2V60c0,2.2,2.2,2.2,4.4,2.2c4.4,2.2,11.1,0,15.6-4.4s6.7-8.9,8.9-15.6V40 c0-2.2-4.4-2.2-4.4,0c-2.2,2.2-2.2,4.4-4.4,6.7S306.5,51.1,299.8,53.3z" class="st6"/></g></svg>